<?xml version="1.0" standalone="no"?>
<!DOCTYPE svg PUBLIC "-//W3C//DTD SVG 20010904//EN"
 "http://www.w3.org/TR/2001/REC-SVG-20010904/DTD/svg10.dtd">
<svg version="1.0" xmlns="http://www.w3.org/2000/svg"
 width="32.000000pt" height="32.000000pt" viewBox="0 0 512.000000 512.000000"
 preserveAspectRatio="xMidYMid meet">

<g transform="translate(0.000000,512.000000) scale(0.100000,-0.100000)"
fill="#ffffff" stroke="none">

<path d="M2275 4980 c-409 -29 -820 -111 -1220 -245 -294 -98 -530 -202 -797
-353 l-118 -66 0 -112 c0 -244 34 -575 86 -849 230 -1200 938 -2284 1949
-2980 154 -106 365 -235 384 -235 32 0 347 200 541 343 337 249 680 593 957
962 229 304 458 710 588 1040 223 566 325 1055 341 1635 l7 215 -154 82 c-576
307 -1194 493 -1839 553 -156 15 -578 20 -725 10z m695 -256 c615 -59 1160
-222 1719 -513 l44 -23 -7 -166 c-22 -575 -197 -1236 -465 -1764 -337 -663
-770 -1177 -1358 -1615 -122 -91 -325 -223 -343 -223 -6 0 -65 34 -132 76
-407 258 -813 634 -1127 1043 -89 116 -257 368 -335 505 -348 605 -566 1361
-578 2006 l-3 134 175 88 c483 242 1040 403 1550 447 69 6 139 13 155 15 80 9
576 2 705 -10z"/>
<path d="M2100 4416 c-278 -58 -518 -267 -604 -526 -29 -88 -50 -220 -44 -284
2 -25 2 -46 0 -46 -2 0 -30 16 -61 35 -93 57 -155 77 -261 82 -110 6 -188 -10
-283 -59 -116 -58 -227 -188 -263 -308 -13 -43 -23 -60 -35 -60 -16 0 -14 -13
17 -130 165 -625 450 -1178 882 -1710 133 -163 455 -479 637 -624 171 -137
447 -326 475 -326 22 0 298 183 420 279 290 227 531 466 757 748 385 481 679
1066 832 1650 l29 113 -70 65 c-160 148 -389 214 -593 169 -38 -8 -82 -17 -97
-21 -26 -5 -28 -3 -28 24 0 45 -28 131 -68 207 -74 141 -235 264 -398 302 -99
23 -246 15 -342 -19 -189 -66 -346 -232 -396 -418 -8 -30 -15 -44 -15 -32 -2
42 49 180 87 239 63 96 139 167 240 222 l51 28 -36 55 c-102 155 -284 285
-468 335 -82 22 -282 27 -365 10z m163 -101 c-1 -5 -26 -14 -55 -18 -126 -20
-163 -31 -241 -70 -55 -27 -103 -61 -146 -104 -36 -35 -71 -63 -78 -63 -29 0
-9 32 60 97 81 74 187 134 285 158 64 15 178 16 175 0z m-543 -305 c0 -25 -35
-80 -52 -80 -23 0 -23 17 2 58 18 30 50 44 50 22z m1500 -103 c0 -9 -26 -17
-77 -25 -89 -14 -178 -53 -241 -108 -34 -29 -46 -34 -55 -25 -26 27 135 138
231 160 60 14 142 13 142 -2z m-400 -219 c0 -18 -38 -78 -49 -78 -19 0 -21 19
-4 54 16 35 53 51 53 24z m-1735 -79 c10 -15 3 -19 -58 -29 -30 -5 -78 -21
-107 -35 -33 -17 -56 -23 -62 -17 -20 20 73 67 158 81 27 5 52 9 56 10 4 0 10
-4 13 -10z m-251 -108 c8 -12 -41 -54 -54 -46 -8 5 -5 15 11 31 24 25 35 29
43 15z m1797 -751 c128 -24 242 -112 298 -230 23 -49 26 -67 26 -170 0 -109
-2 -118 -31 -175 -31 -58 -115 -149 -162 -174 -22 -12 -22 -15 -22 -226 0
-127 -4 -225 -11 -242 -45 -120 -212 -152 -301 -57 -44 47 -48 72 -48 298 l0
212 -59 41 c-65 47 -120 122 -146 200 -26 80 -18 220 17 295 63 135 208 231
359 237 15 1 51 -4 80 -9z"/>
</g>
</svg>
